<svg width="33" height="32" viewBox="0 0 33 32" fill="none" xmlns="http://www.w3.org/2000/svg">
<path d="M16.7738 2.72021C9.44043 2.72021 3.44043 8.70688 3.44043 16.0802C3.44043 22.7469 8.32043 28.2802 14.6938 29.2802V19.9469H11.3071V16.0802H14.6938V13.1335C14.6938 9.78688 16.6804 7.94688 19.7338 7.94688C21.1871 7.94688 22.7071 8.20022 22.7071 8.20022V11.4935H21.0271C19.3738 11.4935 18.8538 12.5202 18.8538 13.5735V16.0802H22.5604L21.9604 19.9469H18.8538V29.2802C21.9957 28.784 24.8567 27.1809 26.9203 24.7603C28.984 22.3397 30.1142 19.2611 30.1071 16.0802C30.1071 8.70688 24.1071 2.72021 16.7738 2.72021Z" fill="white"/>
</svg>
