<svg width="27" height="28" viewBox="0 0 27 28" fill="none" xmlns="http://www.w3.org/2000/svg">
<path d="M8.06683 0.666504H19.2668C23.5335 0.666504 27.0002 4.13317 27.0002 8.39984V19.5998C27.0002 21.6508 26.1854 23.6178 24.7351 25.0681C23.2848 26.5184 21.3178 27.3332 19.2668 27.3332H8.06683C3.80016 27.3332 0.333496 23.8665 0.333496 19.5998V8.39984C0.333496 6.34883 1.14826 4.38183 2.59854 2.93155C4.04882 1.48126 6.01582 0.666504 8.06683 0.666504ZM7.80016 3.33317C6.52712 3.33317 5.30623 3.83888 4.40605 4.73906C3.50588 5.63923 3.00016 6.86013 3.00016 8.13317V19.8665C3.00016 22.5198 5.14683 24.6665 7.80016 24.6665H19.5335C20.8065 24.6665 22.0274 24.1608 22.9276 23.2606C23.8278 22.3604 24.3335 21.1395 24.3335 19.8665V8.13317C24.3335 5.47984 22.1868 3.33317 19.5335 3.33317H7.80016ZM20.6668 5.33317C21.1089 5.33317 21.5328 5.50877 21.8453 5.82133C22.1579 6.13389 22.3335 6.55781 22.3335 6.99984C22.3335 7.44186 22.1579 7.86579 21.8453 8.17835C21.5328 8.49091 21.1089 8.6665 20.6668 8.6665C20.2248 8.6665 19.8009 8.49091 19.4883 8.17835C19.1758 7.86579 19.0002 7.44186 19.0002 6.99984C19.0002 6.55781 19.1758 6.13389 19.4883 5.82133C19.8009 5.50877 20.2248 5.33317 20.6668 5.33317ZM13.6668 7.33317C15.4349 7.33317 17.1306 8.03555 18.3809 9.28579C19.6311 10.536 20.3335 12.2317 20.3335 13.9998C20.3335 15.7679 19.6311 17.4636 18.3809 18.7139C17.1306 19.9641 15.4349 20.6665 13.6668 20.6665C11.8987 20.6665 10.203 19.9641 8.95278 18.7139C7.70254 17.4636 7.00016 15.7679 7.00016 13.9998C7.00016 12.2317 7.70254 10.536 8.95278 9.28579C10.203 8.03555 11.8987 7.33317 13.6668 7.33317ZM13.6668 9.99984C12.606 9.99984 11.5885 10.4213 10.8384 11.1714C10.0883 11.9216 9.66683 12.939 9.66683 13.9998C9.66683 15.0607 10.0883 16.0781 10.8384 16.8283C11.5885 17.5784 12.606 17.9998 13.6668 17.9998C14.7277 17.9998 15.7451 17.5784 16.4953 16.8283C17.2454 16.0781 17.6668 15.0607 17.6668 13.9998C17.6668 12.939 17.2454 11.9216 16.4953 11.1714C15.7451 10.4213 14.7277 9.99984 13.6668 9.99984Z" fill="white"/>
</svg>
