<svg width="28" height="28" viewBox="0 0 28 28" fill="none" xmlns="http://www.w3.org/2000/svg">
<path d="M10.0537 26.7198C11.3337 27.1065 12.627 27.3332 14.0003 27.3332C17.5365 27.3332 20.9279 25.9284 23.4284 23.4279C25.9289 20.9274 27.3337 17.5361 27.3337 13.9998C27.3337 12.2489 26.9888 10.5151 26.3187 8.89739C25.6487 7.27972 24.6665 5.80986 23.4284 4.57175C22.1903 3.33363 20.7204 2.35151 19.1028 1.68144C17.4851 1.01138 15.7513 0.666504 14.0003 0.666504C12.2494 0.666504 10.5156 1.01138 8.89788 1.68144C7.2802 2.35151 5.81035 3.33363 4.57224 4.57175C2.07175 7.07223 0.666992 10.4636 0.666992 13.9998C0.666992 19.6665 4.22699 24.5332 9.25366 26.4532C9.13366 25.4132 9.01366 23.6932 9.25366 22.5065L10.787 15.9198C10.787 15.9198 10.4003 15.1465 10.4003 13.9198C10.4003 12.0798 11.547 10.7065 12.8537 10.7065C14.0003 10.7065 14.5337 11.5465 14.5337 12.6265C14.5337 13.7732 13.7737 15.4132 13.387 16.9865C13.1603 18.2932 14.0803 19.4398 15.4137 19.4398C17.787 19.4398 19.627 16.9065 19.627 13.3332C19.627 10.1332 17.3337 7.9465 14.0403 7.9465C10.2803 7.9465 8.06699 10.7465 8.06699 13.6932C8.06699 14.8398 8.44033 15.9998 9.05366 16.7598C9.17366 16.8398 9.17366 16.9465 9.13366 17.1465L8.74699 18.5998C8.74699 18.8265 8.60033 18.9065 8.37366 18.7465C6.66699 17.9998 5.68033 15.5732 5.68033 13.6132C5.68033 9.39984 8.66699 5.57317 14.427 5.57317C19.0137 5.57317 22.587 8.8665 22.587 13.2398C22.587 17.8265 19.747 21.5065 15.6803 21.5065C14.387 21.5065 13.1203 20.8132 12.667 19.9998L11.7737 23.1598C11.467 24.3065 10.627 25.8398 10.0537 26.7598V26.7198Z" fill="white"/>
</svg>
