<svg width="29" height="24" viewBox="0 0 29 24" fill="none" xmlns="http://www.w3.org/2000/svg">
<path d="M28.6668 3.33317C27.6401 3.79984 26.5334 4.1065 25.3868 4.25317C26.5601 3.5465 27.4668 2.4265 27.8934 1.07984C26.7868 1.7465 25.5601 2.21317 24.2668 2.47984C23.2134 1.33317 21.7334 0.666504 20.0534 0.666504C16.9201 0.666504 14.3601 3.2265 14.3601 6.3865C14.3601 6.83984 14.4134 7.27984 14.5068 7.69317C9.76011 7.45317 5.53344 5.17317 2.7201 1.71984C2.22677 2.55984 1.94677 3.5465 1.94677 4.5865C1.94677 6.57317 2.94677 8.33317 4.49344 9.33317C3.54677 9.33317 2.66677 9.0665 1.89344 8.6665V8.7065C1.89344 11.4798 3.86677 13.7998 6.4801 14.3198C5.64107 14.5494 4.76023 14.5814 3.90677 14.4132C4.26891 15.5498 4.97815 16.5444 5.93479 17.2571C6.89143 17.9698 8.04737 18.3648 9.2401 18.3865C7.21828 19.9871 4.7121 20.8523 2.13344 20.8398C1.6801 20.8398 1.22677 20.8132 0.773438 20.7598C3.30677 22.3865 6.3201 23.3332 9.54677 23.3332C20.0534 23.3332 25.8268 14.6132 25.8268 7.05317C25.8268 6.79984 25.8268 6.55984 25.8134 6.3065C26.9334 5.5065 27.8934 4.49317 28.6668 3.33317Z" fill="white"/>
</svg>
