<svg width="21" height="20" viewBox="0 0 21 20" fill="none" xmlns="http://www.w3.org/2000/svg">
<path d="M17.6684 2.91005C16.747 1.98398 15.6495 1.24972 14.4399 0.750108C13.2303 0.250493 11.9329 -0.0044801 10.6232 5.95695e-05C5.13577 5.95695e-05 0.66341 4.45005 0.66341 9.91003C0.66341 11.66 1.12572 13.36 1.99004 14.86L0.583008 20L5.85939 18.62C7.31668 19.41 8.95487 19.83 10.6232 19.83C16.1106 19.83 20.583 15.38 20.583 9.92003C20.583 7.27004 19.5478 4.78005 17.6684 2.91005ZM10.6232 18.15C9.13577 18.15 7.67848 17.75 6.4021 17L6.10059 16.82L2.96492 17.64L3.79909 14.6L3.59808 14.29C2.7717 12.977 2.3329 11.4593 2.33175 9.91003C2.33175 5.37004 6.05034 1.67005 10.6132 1.67005C12.8242 1.67005 14.9046 2.53005 16.4624 4.09005C17.2337 4.85401 17.845 5.7627 18.2608 6.76346C18.6766 7.76422 18.8886 8.83714 18.8845 9.92003C18.9046 14.46 15.186 18.15 10.6232 18.15ZM15.1659 11.99C14.9147 11.87 13.6885 11.27 13.4674 11.18C13.2363 11.1 13.0755 11.06 12.9046 11.3C12.7338 11.55 12.2614 12.11 12.1207 12.27C11.98 12.44 11.8292 12.46 11.578 12.33C11.3267 12.21 10.5227 11.94 9.57798 11.1C8.83426 10.44 8.3418 9.63003 8.19105 9.38003C8.05034 9.13003 8.17095 9.00003 8.3016 8.87003C8.41215 8.76003 8.55286 8.58003 8.67346 8.44003C8.79406 8.30003 8.84431 8.19003 8.92472 8.03003C9.00512 7.86004 8.96492 7.72004 8.90461 7.60004C8.84431 7.48004 8.3418 6.26004 8.1408 5.76004C7.93979 5.28004 7.72874 5.34004 7.57798 5.33004H7.09557C6.92472 5.33004 6.66341 5.39004 6.43225 5.64004C6.21115 5.89004 5.56793 6.49004 5.56793 7.71004C5.56793 8.93003 6.4624 10.11 6.58301 10.27C6.70361 10.44 8.3418 12.94 10.8343 14.01C11.4272 14.27 11.8895 14.42 12.2513 14.53C12.8443 14.72 13.387 14.69 13.8192 14.63C14.3016 14.56 15.2966 14.03 15.4976 13.45C15.7086 12.87 15.7086 12.38 15.6383 12.27C15.5679 12.16 15.4172 12.11 15.1659 11.99Z" fill="#F8F9FE"/>
</svg>
